<mxfile host="Electron" agent="Mozilla/5.0 (Windows NT 10.0; Win64; x64) AppleWebKit/537.36 (KHTML, like Gecko) draw.io/26.2.2 Chrome/134.0.6998.178 Electron/35.1.2 Safari/537.36" version="26.2.2">
  <diagram name="페이지-1" id="B1DytcyJ7g7vMncHio5x">
    <mxGraphModel dx="1606" dy="1111" grid="1" gridSize="10" guides="1" tooltips="1" connect="1" arrows="1" fold="1" page="1" pageScale="1" pageWidth="1600" pageHeight="1200" math="0" shadow="0">
      <root>
        <mxCell id="0" />
        <mxCell id="1" parent="0" />
        <mxCell id="Wx1pR-YZgtEtlMY5IKk1-122" value="" style="rounded=0;whiteSpace=wrap;html=1;" vertex="1" parent="1">
          <mxGeometry y="5" width="920" height="715" as="geometry" />
        </mxCell>
        <mxCell id="Wx1pR-YZgtEtlMY5IKk1-1" value="도로" style="rounded=0;whiteSpace=wrap;html=1;" vertex="1" parent="1">
          <mxGeometry x="400" y="200" width="120" height="80" as="geometry" />
        </mxCell>
        <mxCell id="Wx1pR-YZgtEtlMY5IKk1-25" style="rounded=0;orthogonalLoop=1;jettySize=auto;html=1;exitX=0.5;exitY=1;exitDx=0;exitDy=0;entryX=0.25;entryY=0;entryDx=0;entryDy=0;endArrow=none;startFill=0;" edge="1" parent="1" source="Wx1pR-YZgtEtlMY5IKk1-2" target="Wx1pR-YZgtEtlMY5IKk1-1">
          <mxGeometry relative="1" as="geometry" />
        </mxCell>
        <mxCell id="Wx1pR-YZgtEtlMY5IKk1-2" value="최근측정일시" style="ellipse;whiteSpace=wrap;html=1;" vertex="1" parent="1">
          <mxGeometry x="280" y="40" width="120" height="80" as="geometry" />
        </mxCell>
        <mxCell id="Wx1pR-YZgtEtlMY5IKk1-24" style="rounded=0;orthogonalLoop=1;jettySize=auto;html=1;exitX=0.5;exitY=1;exitDx=0;exitDy=0;entryX=0;entryY=0;entryDx=0;entryDy=0;endArrow=none;startFill=0;" edge="1" parent="1" source="Wx1pR-YZgtEtlMY5IKk1-3" target="Wx1pR-YZgtEtlMY5IKk1-1">
          <mxGeometry relative="1" as="geometry" />
        </mxCell>
        <mxCell id="Wx1pR-YZgtEtlMY5IKk1-3" value="도로명" style="ellipse;whiteSpace=wrap;html=1;" vertex="1" parent="1">
          <mxGeometry x="160" y="40" width="120" height="80" as="geometry" />
        </mxCell>
        <mxCell id="Wx1pR-YZgtEtlMY5IKk1-23" style="rounded=0;orthogonalLoop=1;jettySize=auto;html=1;exitX=0.5;exitY=1;exitDx=0;exitDy=0;entryX=0;entryY=0.25;entryDx=0;entryDy=0;endArrow=none;startFill=0;" edge="1" parent="1" source="Wx1pR-YZgtEtlMY5IKk1-4" target="Wx1pR-YZgtEtlMY5IKk1-1">
          <mxGeometry relative="1" as="geometry" />
        </mxCell>
        <mxCell id="Wx1pR-YZgtEtlMY5IKk1-4" value="도로ID" style="ellipse;whiteSpace=wrap;html=1;fontStyle=4" vertex="1" parent="1">
          <mxGeometry x="40" y="40" width="120" height="80" as="geometry" />
        </mxCell>
        <mxCell id="Wx1pR-YZgtEtlMY5IKk1-29" style="rounded=0;orthogonalLoop=1;jettySize=auto;html=1;exitX=0.5;exitY=1;exitDx=0;exitDy=0;entryX=1;entryY=0.25;entryDx=0;entryDy=0;endArrow=none;startFill=0;" edge="1" parent="1" source="Wx1pR-YZgtEtlMY5IKk1-7" target="Wx1pR-YZgtEtlMY5IKk1-1">
          <mxGeometry relative="1" as="geometry" />
        </mxCell>
        <mxCell id="Wx1pR-YZgtEtlMY5IKk1-7" value="상태" style="ellipse;whiteSpace=wrap;html=1;" vertex="1" parent="1">
          <mxGeometry x="760" y="40" width="120" height="80" as="geometry" />
        </mxCell>
        <mxCell id="Wx1pR-YZgtEtlMY5IKk1-26" style="rounded=0;orthogonalLoop=1;jettySize=auto;html=1;exitX=0.5;exitY=1;exitDx=0;exitDy=0;entryX=0.5;entryY=0;entryDx=0;entryDy=0;endArrow=none;startFill=0;" edge="1" parent="1" source="Wx1pR-YZgtEtlMY5IKk1-8" target="Wx1pR-YZgtEtlMY5IKk1-1">
          <mxGeometry relative="1" as="geometry" />
        </mxCell>
        <mxCell id="Wx1pR-YZgtEtlMY5IKk1-8" value="최근보수일시" style="ellipse;whiteSpace=wrap;html=1;" vertex="1" parent="1">
          <mxGeometry x="400" y="40" width="120" height="80" as="geometry" />
        </mxCell>
        <mxCell id="Wx1pR-YZgtEtlMY5IKk1-28" style="rounded=0;orthogonalLoop=1;jettySize=auto;html=1;exitX=0.5;exitY=1;exitDx=0;exitDy=0;entryX=1;entryY=0;entryDx=0;entryDy=0;endArrow=none;startFill=0;" edge="1" parent="1" source="Wx1pR-YZgtEtlMY5IKk1-9" target="Wx1pR-YZgtEtlMY5IKk1-1">
          <mxGeometry relative="1" as="geometry" />
        </mxCell>
        <mxCell id="Wx1pR-YZgtEtlMY5IKk1-9" value="포트홀개수" style="ellipse;whiteSpace=wrap;html=1;" vertex="1" parent="1">
          <mxGeometry x="640" y="40" width="120" height="80" as="geometry" />
        </mxCell>
        <mxCell id="Wx1pR-YZgtEtlMY5IKk1-27" style="rounded=0;orthogonalLoop=1;jettySize=auto;html=1;exitX=0.5;exitY=1;exitDx=0;exitDy=0;entryX=0.75;entryY=0;entryDx=0;entryDy=0;endArrow=none;startFill=0;" edge="1" parent="1" source="Wx1pR-YZgtEtlMY5IKk1-10" target="Wx1pR-YZgtEtlMY5IKk1-1">
          <mxGeometry relative="1" as="geometry" />
        </mxCell>
        <mxCell id="Wx1pR-YZgtEtlMY5IKk1-10" value="위험도" style="ellipse;whiteSpace=wrap;html=1;" vertex="1" parent="1">
          <mxGeometry x="520" y="40" width="120" height="80" as="geometry" />
        </mxCell>
        <mxCell id="Wx1pR-YZgtEtlMY5IKk1-12" value="포트홀" style="rounded=0;whiteSpace=wrap;html=1;strokeColor=default;" vertex="1" parent="1">
          <mxGeometry x="400" y="440" width="120" height="80" as="geometry" />
        </mxCell>
        <mxCell id="Wx1pR-YZgtEtlMY5IKk1-33" style="rounded=0;orthogonalLoop=1;jettySize=auto;html=1;exitX=0.5;exitY=0;exitDx=0;exitDy=0;entryX=0.25;entryY=1;entryDx=0;entryDy=0;endArrow=none;startFill=0;" edge="1" parent="1" source="Wx1pR-YZgtEtlMY5IKk1-13" target="Wx1pR-YZgtEtlMY5IKk1-12">
          <mxGeometry relative="1" as="geometry" />
        </mxCell>
        <mxCell id="Wx1pR-YZgtEtlMY5IKk1-13" value="너비" style="ellipse;whiteSpace=wrap;html=1;" vertex="1" parent="1">
          <mxGeometry x="340" y="600" width="120" height="80" as="geometry" />
        </mxCell>
        <mxCell id="Wx1pR-YZgtEtlMY5IKk1-32" style="rounded=0;orthogonalLoop=1;jettySize=auto;html=1;exitX=0.5;exitY=0;exitDx=0;exitDy=0;entryX=0;entryY=1;entryDx=0;entryDy=0;endArrow=none;startFill=0;" edge="1" parent="1" source="Wx1pR-YZgtEtlMY5IKk1-14" target="Wx1pR-YZgtEtlMY5IKk1-12">
          <mxGeometry relative="1" as="geometry" />
        </mxCell>
        <mxCell id="Wx1pR-YZgtEtlMY5IKk1-14" value="깊이" style="ellipse;whiteSpace=wrap;html=1;" vertex="1" parent="1">
          <mxGeometry x="220" y="600" width="120" height="80" as="geometry" />
        </mxCell>
        <mxCell id="Wx1pR-YZgtEtlMY5IKk1-30" style="rounded=0;orthogonalLoop=1;jettySize=auto;html=1;exitX=0.5;exitY=0;exitDx=0;exitDy=0;entryX=0;entryY=0.75;entryDx=0;entryDy=0;endArrow=none;startFill=0;" edge="1" parent="1" source="Wx1pR-YZgtEtlMY5IKk1-45" target="Wx1pR-YZgtEtlMY5IKk1-12">
          <mxGeometry relative="1" as="geometry">
            <mxPoint x="159.99999999999977" y="599.9999999999998" as="sourcePoint" />
          </mxGeometry>
        </mxCell>
        <mxCell id="Wx1pR-YZgtEtlMY5IKk1-34" style="rounded=0;orthogonalLoop=1;jettySize=auto;html=1;exitX=0.5;exitY=0;exitDx=0;exitDy=0;entryX=0.75;entryY=1;entryDx=0;entryDy=0;endArrow=none;startFill=0;" edge="1" parent="1" source="Wx1pR-YZgtEtlMY5IKk1-17" target="Wx1pR-YZgtEtlMY5IKk1-12">
          <mxGeometry relative="1" as="geometry" />
        </mxCell>
        <mxCell id="Wx1pR-YZgtEtlMY5IKk1-17" value="위도" style="ellipse;whiteSpace=wrap;html=1;" vertex="1" parent="1">
          <mxGeometry x="460" y="600" width="120" height="80" as="geometry" />
        </mxCell>
        <mxCell id="Wx1pR-YZgtEtlMY5IKk1-36" style="rounded=0;orthogonalLoop=1;jettySize=auto;html=1;exitX=0.5;exitY=0;exitDx=0;exitDy=0;entryX=1;entryY=0.75;entryDx=0;entryDy=0;endArrow=none;startFill=0;" edge="1" parent="1" source="Wx1pR-YZgtEtlMY5IKk1-18" target="Wx1pR-YZgtEtlMY5IKk1-12">
          <mxGeometry relative="1" as="geometry" />
        </mxCell>
        <mxCell id="Wx1pR-YZgtEtlMY5IKk1-18" value="측정일시" style="ellipse;whiteSpace=wrap;html=1;" vertex="1" parent="1">
          <mxGeometry x="700" y="600" width="120" height="80" as="geometry" />
        </mxCell>
        <mxCell id="Wx1pR-YZgtEtlMY5IKk1-35" style="rounded=0;orthogonalLoop=1;jettySize=auto;html=1;exitX=0.5;exitY=0;exitDx=0;exitDy=0;entryX=1;entryY=1;entryDx=0;entryDy=0;endArrow=none;startFill=0;" edge="1" parent="1" source="Wx1pR-YZgtEtlMY5IKk1-19" target="Wx1pR-YZgtEtlMY5IKk1-12">
          <mxGeometry relative="1" as="geometry" />
        </mxCell>
        <mxCell id="Wx1pR-YZgtEtlMY5IKk1-19" value="경도" style="ellipse;whiteSpace=wrap;html=1;" vertex="1" parent="1">
          <mxGeometry x="580" y="600" width="120" height="80" as="geometry" />
        </mxCell>
        <mxCell id="Wx1pR-YZgtEtlMY5IKk1-37" value="포트홀" style="shape=ext;margin=3;double=1;whiteSpace=wrap;html=1;align=center;" vertex="1" parent="1">
          <mxGeometry x="400" y="440" width="120" height="80" as="geometry" />
        </mxCell>
        <mxCell id="Wx1pR-YZgtEtlMY5IKk1-39" value="포함한다" style="shape=rhombus;double=1;perimeter=rhombusPerimeter;whiteSpace=wrap;html=1;align=center;" vertex="1" parent="1">
          <mxGeometry x="400" y="320" width="120" height="80" as="geometry" />
        </mxCell>
        <mxCell id="Wx1pR-YZgtEtlMY5IKk1-40" value="" style="endArrow=none;html=1;rounded=0;exitX=0.5;exitY=1;exitDx=0;exitDy=0;entryX=0.5;entryY=0;entryDx=0;entryDy=0;" edge="1" parent="1" source="Wx1pR-YZgtEtlMY5IKk1-1" target="Wx1pR-YZgtEtlMY5IKk1-39">
          <mxGeometry relative="1" as="geometry">
            <mxPoint x="560" y="380" as="sourcePoint" />
            <mxPoint x="720" y="380" as="targetPoint" />
          </mxGeometry>
        </mxCell>
        <mxCell id="Wx1pR-YZgtEtlMY5IKk1-41" value="" style="endArrow=none;html=1;rounded=0;exitX=0.5;exitY=1;exitDx=0;exitDy=0;entryX=0.5;entryY=0;entryDx=0;entryDy=0;" edge="1" parent="1" source="Wx1pR-YZgtEtlMY5IKk1-39" target="Wx1pR-YZgtEtlMY5IKk1-37">
          <mxGeometry relative="1" as="geometry">
            <mxPoint x="560" y="340" as="sourcePoint" />
            <mxPoint x="720" y="340" as="targetPoint" />
          </mxGeometry>
        </mxCell>
        <mxCell id="Wx1pR-YZgtEtlMY5IKk1-42" value="1" style="text;html=1;align=center;verticalAlign=middle;resizable=0;points=[];autosize=1;strokeColor=none;fillColor=none;" vertex="1" parent="1">
          <mxGeometry x="460" y="280" width="30" height="30" as="geometry" />
        </mxCell>
        <mxCell id="Wx1pR-YZgtEtlMY5IKk1-43" value="N" style="text;html=1;align=center;verticalAlign=middle;resizable=0;points=[];autosize=1;strokeColor=none;fillColor=none;" vertex="1" parent="1">
          <mxGeometry x="460" y="410" width="30" height="30" as="geometry" />
        </mxCell>
        <mxCell id="Wx1pR-YZgtEtlMY5IKk1-45" value="&lt;span style=&quot;border-bottom: 1px dotted&quot;&gt;포트홀ID&lt;/span&gt;" style="ellipse;whiteSpace=wrap;html=1;align=center;" vertex="1" parent="1">
          <mxGeometry x="100" y="600" width="120" height="80" as="geometry" />
        </mxCell>
      </root>
    </mxGraphModel>
  </diagram>
</mxfile>
